<svg width="46" height="46" xmlns="http://www.w3.org/2000/svg">

 <g>
  <title>background</title>
  <rect fill="none" id="canvas_background" height="48" width="48" y="-1" x="-1"/>
 </g>
 <g>
  <g id="svg_23">
   <title>Layer 1</title>
   <line opacity="0.2" id="svg_3" y2="43.959534" y1="3.959534" x2="10" x1="19" fill="#231F20"/>
   <path opacity="0.2" id="svg_4" fill="#231F20" d="m10.000999,45.459534c-0.108999,0 -0.219999,-0.012001 -0.330999,-0.037003c-0.809,-0.181999 -1.316,-0.984001 -1.134001,-1.792999l9,-39.999998c0.181999,-0.809 0.986,-1.316 1.792,-1.134c0.808998,0.182 1.315998,0.984 1.133999,1.792l-8.999998,39.999995c-0.155001,0.698006 -0.775,1.172005 -1.461,1.172005z"/>
   <line opacity="0.2" id="svg_6" y2="43.959534" y1="3.959534" x2="36" x1="28" fill="#231F20"/>
   <path opacity="0.2" id="svg_7" fill="#231F20" d="m35.998001,45.459534c-0.701,0 -1.327,-0.493004 -1.469002,-1.207001l-8,-39.999999c-0.162998,-0.812 0.364002,-1.602 1.177002,-1.765c0.812,-0.165 1.601997,0.364 1.764999,1.177l8,40.000001c0.162998,0.811996 -0.364002,1.602997 -1.177002,1.764999c-0.098999,0.020996 -0.197998,0.029999 -0.295998,0.029999z"/>
   <path opacity="0.2" id="svg_9" fill="#231F20" d="m23,45.459534c-0.829002,0 -1.5,-0.671005 -1.5,-1.5l0,-16.625c0,-0.828999 0.670998,-1.5 1.5,-1.5c0.828999,0 1.5,0.671001 1.5,1.5l0,16.625c0,0.828995 -0.671001,1.5 -1.5,1.5z"/>
   <line id="svg_10" y2="41.959534" y1="1.959534" x2="10" x1="19" stroke-width="3" stroke-miterlimit="10" stroke-linejoin="round" stroke-linecap="round" stroke="#e5e5e5" fill="#F5CF87"/>
   <line id="svg_11" y2="41.959534" y1="1.959534" x2="36" x1="28" stroke-width="3" stroke-miterlimit="10" stroke-linejoin="round" stroke-linecap="round" stroke="#e5e5e5" fill="#F5CF87"/>
   <line id="svg_12" y2="41.959534" y1="25.334534" x2="23" x1="23" stroke-width="3" stroke-miterlimit="10" stroke-linejoin="round" stroke-linecap="round" stroke="#e5e5e5" fill="none"/>
   <path stroke="#ffffff" id="svg_14" fill="none" d="m40,28.201532c0,0.971001 -0.951,1.757999 -2.125,1.757999l-29.75,0c-1.174,0 -2.125,-0.786999 -2.125,-1.757999l0,-18.483999c0,-0.970999 0.951,-1.757999 2.125,-1.757999l29.75,0c1.174,0 2.125,0.787001 2.125,1.757999l0,18.483999z"/>
   <path opacity="0.2" id="svg_16" fill="#231F20" d="m32,11.459534l-18,0c-0.829001,0 -1.5,-0.671 -1.5,-1.5s0.670999,-1.5 1.5,-1.5l18,0c0.828999,0 1.5,0.671 1.5,1.5s-0.671001,1.5 -1.5,1.5z"/>
   <path opacity="0.2" id="svg_18" fill="#231F20" d="m32,33.459534l-18,0c-0.829001,0 -1.5,-0.671005 -1.5,-1.500002s0.670999,-1.5 1.5,-1.5l18,0c0.828999,0 1.5,0.671001 1.5,1.5s-0.671001,1.500002 -1.5,1.500002z"/>
   <rect id="svg_22" height="21.46341" width="33.525492" y="8.256655" x="6.237253" stroke-width="null" stroke="#ffffff" fill="#4d7f60"/>
   <line id="svg_19" y2="8.459534" y1="8.459534" x2="32" x1="14" stroke-width="3" stroke-miterlimit="10" stroke-linejoin="round" stroke-linecap="round" stroke="#ffffff" fill="none"/>
   <line id="svg_20" y2="30.459534" y1="30.459534" x2="32" x1="14" stroke-width="3" stroke-miterlimit="10" stroke-linejoin="round" stroke-linecap="round" stroke="#ffffff" fill="none"/>
  </g>
 </g>
</svg>