<svg width="64" height="64" xmlns="http://www.w3.org/2000/svg">

 <g>
  <title>background</title>
  <rect fill="none" id="canvas_background" height="66" width="66" y="-1" x="-1"/>
 </g>
 <g>
  <title>Layer 1</title>
  <rect id="svg_44" height="60.648096" width="131.760521" y="31.606182" x="-37.143329" stroke-opacity="null" stroke-width="null" stroke="null" fill="#468ed6"/>
  <ellipse ry="31.899321" rx="32.068102" id="svg_43" cy="31.999997" cx="31.943741" stroke-opacity="null" stroke-width="null" stroke="null" fill="#468ed6"/>
  <g id="svg_42">
   <path id="svg_2" fill="#F7B4B4" d="m34.632988,45.273197l-2.645662,0l-2.645666,0c-0.852993,0 -1.665127,-0.36372 -2.232126,-1.000473l-5.087049,-3.981949l0,4.48418c0,0 0,7.473629 9.964842,7.473629s9.964838,-7.473629 9.964838,-7.473629l0,-4.48418l-5.087051,3.981949c-0.566998,0.636753 -1.379131,1.000473 -2.232124,1.000473z"/>
   <path id="svg_3" fill="#FBC8C8" d="m27.109533,44.272724l-5.087049,-3.981949l0,4.48418c0,0 0,7.473629 9.964842,7.473629l0,-6.975388l-2.645666,0c-0.852993,0 -1.665127,-0.36372 -2.232126,-1.000473z"/>
   <path id="svg_4" fill="#FBC8C8" d="m48.927547,24.571245c0,-1.107094 -0.996483,-2.214188 -1.992966,-2.214188s-0.996483,1.107094 -0.996483,1.107094l0,-1.107094c-0.017937,-8.968354 -1.020401,-14.947258 -13.950773,-14.947258s-13.932838,5.978904 -13.950777,14.947258l0,7.968878l3.985935,9.96484l5.087049,3.981949c0.566999,0.636753 1.379133,1.000473 2.232126,1.000473l2.645666,0l2.645662,0c0.852993,0 1.665127,-0.36372 2.232124,-1.000473l5.087051,-3.981949l3.195724,-7.988808c2.825031,-0.203289 3.779659,-4.488167 3.779659,-7.730722z"/>
   <path id="svg_5" fill="#FBD7D7" d="m18.036549,22.357058l0,1.107094c0,0 0,-1.107094 -0.996483,-1.107094s-1.992967,1.107094 -1.992967,2.214188c0,3.241558 0.954631,7.527433 3.779662,7.730722l3.195723,7.988808l5.087049,3.981949c0.566999,0.636753 1.379133,1.000473 2.232126,1.000473l2.645666,0l0,-37.863398c-12.930378,0 -13.932838,5.978904 -13.950777,14.947258z"/>
   <path id="svg_7" fill="#F79392" d="m27.004904,34.311871l9.964842,0c0,0 0,2.989452 -4.98242,2.989452s-4.982422,-2.989452 -4.982422,-2.989452z"/>
   <polygon id="svg_9" fill="#FFFFFF" points="43.945130575601524,45.2761852372123 41.952163089219994,44.27970149402154 31.98732565731234,52.25455924862263 22.022484424120876,44.27970149402154 20.029516937739345,45.2761852372123 31.98732565731234,64.21235656434419 "/>
   <path id="svg_11" fill="#F37A10" d="m0.099843,64.209366l3.985935,-10.961311c0.612837,-1.328312 1.692029,-2.385586 3.032299,-2.972511l12.911439,-4.999359l11.957809,18.933182l-31.887483,0z"/>
   <path id="svg_13" fill="#F37A10" d="m63.874805,64.209366l-3.985935,-10.961311c-0.612835,-1.328312 -1.692028,-2.385586 -3.032299,-2.972511l-12.911442,-4.999359l-11.957804,18.933182l31.88748,0z"/>
   <path id="svg_15" fill="#3E3E3F" d="m28.991892,24.385897c0,-1.100117 -0.892851,-1.992968 -1.992968,-1.992968c-0.001993,0 -0.003984,0 -0.00598,0c0.000996,0.020927 0.00598,0.040857 0.00598,0.061783c0,1.099123 -0.888863,1.988979 -1.986988,1.992968c0.032885,1.071217 0.906799,1.931185 1.986988,1.931185c1.100117,0 1.992968,-0.891853 1.992968,-1.992968z"/>
   <path id="svg_17" fill="#3E3E3F" d="m38.949757,24.385897c0,-1.100117 -0.892849,-1.992968 -1.992966,-1.992968c-0.001995,0 -0.003986,0 -0.005981,0c0.000996,0.020927 0.005981,0.040857 0.005981,0.061783c0,1.099123 -0.888863,1.988979 -1.986988,1.992968c0.032883,1.071217 0.906799,1.931185 1.986988,1.931185c1.101112,0 1.992966,-0.891853 1.992966,-1.992968z"/>
   <path id="svg_19" fill="#84462D" d="m17.040066,18.374109c0,2.148418 0.996483,11.831253 0.996483,12.95429c0,0 0,0 0.996485,1.99297c0,0 0,0 0.996483,0c0,-1.378139 -0.996483,-12.954292 2.989452,-15.943743l-5.978903,0.996483z"/>
   <path id="svg_21" fill="#84462D" d="m46.934582,18.374109c0,2.148418 -0.996483,11.831253 -0.996483,12.95429c0,0 0,0 -0.996483,1.99297c0,0 0,0 -0.996487,0c0,-1.378139 0.996487,-12.954292 -2.989449,-15.943743l5.978901,0.996483z"/>
   <path id="svg_23" fill="#84462D" d="m24.015451,34.317852l7.971874,0c0,-4.532011 -5.978907,-3.777672 -7.971874,0z"/>
   <path id="svg_24" fill="#84462D" d="m31.987326,34.317852l7.971869,0c-1.992966,-3.777672 -7.971869,-4.532011 -7.971869,0z"/>
   <polygon id="svg_26" fill="#FACB1B" points="13.191646928849593,47.92384023168961 17.459586793333074,64.20936875526922 22.5775250784111,64.20936875526922 17.8372519424629,46.125186771127574 "/>
   <polygon id="svg_28" fill="#FACB1B" points="50.92051677793688,47.92384023168961 46.65257976441626,64.20936875526922 41.535633614412745,64.20936875526922 46.27490701271881,46.125186771127574 "/>
   <path id="svg_30" fill="#FFFFFF" d="m9.960051,49.323898l-2.841974,0.954632c-1.34027,0.585938 -2.419462,1.644199 -3.032299,2.972511l-3.985935,10.961315l11.872109,0l-2.011901,-14.888458z"/>
   <path id="svg_32" fill="#FFFFFF" d="m53.928898,49.323898l2.841976,0.954632c1.340271,0.585938 2.419464,1.644199 3.032299,2.972511l3.985935,10.961315l-11.872108,0l2.011898,-14.888458z"/>
   <path id="svg_35" fill="#FACB1B" d="m17.040066,18.374109c0,0 -0.996483,-14.947255 14.94726,-14.947255c0,7.97187 0,14.947255 0,14.947255l-14.94726,0z"/>
   <path id="svg_37" fill="#F3B607" d="m46.934582,18.374109c0,0 0.996483,-14.947255 -14.947256,-14.947255c0,7.97187 0,14.947255 0,14.947255l14.947256,0z"/>
   <path id="svg_38" fill="#FBE158" d="m34.976776,8.409272l0,-5.978902c0,-1.100118 -0.892849,-1.992967 -1.992966,-1.992967l-1.992971,0c-1.100119,0 -1.992968,0.892849 -1.992968,1.992967l0,5.978902c0.066765,1.759789 -1.914248,7.694848 -6.975388,7.971869c4.835938,0 6.483124,0 6.975388,0l0.188334,0l5.60124,0l0.189331,0c0.492264,0 2.138454,0 6.975388,0c-5.061142,-0.277021 -7.042152,-6.21208 -6.975388,-7.971869z"/>
   <path id="svg_40" fill="#F3B607" d="m49.924034,18.621239c0,0.452402 -0.303928,0.846014 -0.741386,0.962603c-1.936165,0.514185 -7.667946,1.77972 -17.195322,1.77972s-15.259159,-1.265535 -17.195327,-1.77972c-0.43646,-0.115593 -0.741384,-0.511196 -0.741384,-0.962603l0,-0.247129c0,-1.101112 0.891853,-1.992968 1.992968,-1.992968l31.887482,0c1.10112,0 1.99297,0.891855 1.99297,1.992968l0,0.247129z"/>
   <path id="svg_41" fill="#FACB1B" d="m16.043583,16.381142c-1.100118,0 -1.992968,0.892851 -1.992968,1.992968l0,0.248125c0,0.451406 0.304924,0.84701 0.741384,0.962605c1.936168,0.513187 7.667941,1.778723 17.195327,1.778723l0,-4.98242l-15.943743,0z"/>
  </g>
 </g>
</svg>