<?xml version="1.0" ?><!DOCTYPE svg  PUBLIC '-//W3C//DTD SVG 1.1//EN'  'http://www.w3.org/Graphics/SVG/1.1/DTD/svg11.dtd'><svg height="512px" style="shape-rendering:geometricPrecision; text-rendering:geometricPrecision; image-rendering:optimizeQuality; fill-rule:evenodd; clip-rule:evenodd" viewBox="0 0 71.6015 71.6015" width="512px" xml:space="preserve" xmlns="http://www.w3.org/2000/svg" xmlns:xlink="http://www.w3.org/1999/xlink"><defs><style type="text/css">
   <![CDATA[
    .fil4 {fill:none}
    .fil2 {fill:#121212}
    .fil1 {fill:#212121}
    .fil0 {fill:#424242}
    .fil3 {fill:#595959}
   ]]>
  </style></defs><g id="Layer_x0020_1"><g id="_134004304"><polygon class="fil0" id="_133627200" points="29.5521,49.5442 42.0494,49.5442 42.8272,56.3048 28.7742,56.3048 "/><rect class="fil1" height="1.10143" id="_133626552" rx="0.149173" ry="0.149173" width="38.3609" x="16.6203" y="56.2669"/><path class="fil1" d="M18.176 57.3415l1.16474 0 0 0.0665758c0,0.164083 -0.134253,0.298336 -0.298325,0.298336l-0.568086 0c-0.164083,0 -0.298325,-0.134253 -0.298325,-0.298336l0 -0.0665758z" id="_133626312"/><path class="fil1" d="M52.2607 57.3415l1.16475 0 0 0.0665758c0,0.164083 -0.134253,0.298336 -0.298325,0.298336l-0.568086 0c-0.164083,0 -0.298336,-0.134253 -0.298336,-0.298336l0 -0.0665758z" id="_133626408"/><path class="fil2" d="M9.17165 50.5318l53.2582 0c0.855784,0 1.55593,-0.700037 1.55593,-1.55568l0 -33.5253c0,-0.855652 -0.700643,-1.55569 -1.55593,-1.55569l-53.2582 0c-0.855289,0 -1.55592,0.700522 -1.55592,1.55569l0 33.5253c0,0.855157 0.700147,1.55568 1.55592,1.55568z" id="_133653984"/><g><rect class="fil0" height="31.5805" id="_133653816" width="51.3861" x="10.1077" y="16.4352"/><polygon class="fil3" id="_133654272" points="37.3825,16.4352 55.6183,48.0157 61.4938,48.0157 61.4938,16.4352 "/></g></g><rect class="fil4" height="71.6015" width="71.6015"/></g></svg>