<svg width="10" height="10" xmlns="http://www.w3.org/2000/svg">

 <g>
  <title>background</title>
  <rect fill="none" id="canvas_background" height="12" width="12" y="-1" x="-1"/>
 </g>
 <g>
  <title>Layer 1</title>
  <g id="svg_1">
   <path fill="#ffffff" stroke-width="0.705556px" id="path12" d="m5.383451,0.012038l-5.36828,0l0,9.975924l5.36828,0l0,-0.712577l-4.601389,0l0,-8.550801l4.601389,0l0,-0.712546z"/>
   <path fill="#ffffff" stroke-width="0.705556px" stroke-miterlimit="4" stroke-dashoffset="0" id="path822" d="m2.315855,4.287438l5.368281,0l-2.300684,-2.1377l0.76689,-0.712546l3.834487,3.562793l-3.834487,3.562854l-0.76689,-0.712577l2.300684,-2.13767l-5.368281,0l0,-1.425154z"/>
  </g>
  <line stroke-linecap="null" stroke-linejoin="null" id="svg_7" y2="10.090214" x2="0.503676" y1="-0.060665" x1="0.503676" fill-opacity="null" stroke="#ffffff" fill="none"/>
  <line transform="rotate(90, 0.319652, 0.500049)" stroke-linecap="null" stroke-linejoin="null" id="svg_8" y2="5.575488" x2="0.319652" y1="-4.575391" x1="0.319652" stroke="#ffffff" fill="none"/>
  <line transform="rotate(90, 0.307384, 9.51723)" stroke-linecap="null" stroke-linejoin="null" id="svg_9" y2="14.592671" x2="0.307384" y1="4.441793" x1="0.307384" fill-opacity="null" stroke="#ffffff" fill="none"/>
 </g>
</svg>