<svg width="28.999999999999996" height="28.999999999999996" xmlns="http://www.w3.org/2000/svg">
 <title/>
 <desc/>

 <g>
  <title>background</title>
  <rect fill="none" id="canvas_background" height="31" width="31" y="-1" x="-1"/>
 </g>
 <g>
  <title>Layer 1</title>
  <path fill="#ffffff" id="clipboard-list" d="m11.878717,3.871731l0,-0.968225c0,-1.062489 0.941151,-1.930394 2.102119,-1.930394l1.038274,0c1.164872,0 2.102132,0.864272 2.102132,1.930394l0,0.968225l2.10165,0c0.577454,0 1.043873,0.432137 1.043873,0.965202l0,0.968216c0,0.5375 -0.467361,0.965202 -1.043873,0.965202l-9.445803,0c-0.577449,0 -1.043862,-0.432136 -1.043862,-0.965202l0,-0.968216c0,-0.537501 0.467347,-0.965202 1.043862,-0.965202l2.101627,0l0,0zm-1.048496,-0.966206l-1.045603,0c-1.158033,0 -2.09713,0.861161 -2.099878,1.932414l-1.051223,0c-1.156651,0 -2.094311,0.859692 -2.094311,1.935881l0,20.283385c0,1.069166 0.934148,1.93589 2.094311,1.93589l15.732968,0c1.156651,0 2.094307,-0.85969 2.094307,-1.93589l0,-20.283385c0,-1.069156 -0.934135,-1.935881 -2.094307,-1.935881l-1.051224,0l0,0c-0.002747,-1.067678 -0.938583,-1.932414 -2.099899,-1.932414l-1.045612,0c-0.000942,-1.601014 -1.415726,-2.898621 -3.155221,-2.898621l-1.029111,0c-1.741992,0 -3.154253,1.292911 -3.155197,2.898621l0,0l0,0zm10.485041,2.89862l1.048561,0c0.571697,0 1.048466,0.433914 1.048466,0.969173l0,20.2844c0,0.545084 -0.469421,0.969172 -1.048466,0.969172l-15.727642,0c-0.571699,0 -1.048466,-0.433912 -1.048466,-0.969172l0,-20.2844c0,-0.545085 0.469417,-0.969173 1.048466,-0.969173l1.048559,0c0.002748,1.067677 0.938574,1.932405 2.099878,1.932405l9.430744,0c1.158047,0 2.097153,-0.861153 2.099899,-1.932405l0,0l0,0zm-6.815288,-1.932414c0.289536,0 0.524253,-0.216295 0.524253,-0.483103c0,-0.266808 -0.234717,-0.483103 -0.524253,-0.483103c-0.289536,0 -0.524254,0.216295 -0.524254,0.483103c0,0.266809 0.234718,0.483103 0.524254,0.483103l0,0zm-1.572762,8.695853l0,0.966207l8.388061,0l0,-0.966207l-8.388061,0l0,0zm-5.242483,-0.966207l0,2.898619l3.145491,0l0,-2.898619l-3.145491,0l0,0zm1.048498,0.966207l0,0.966207l1.048497,0l0,-0.966207l-1.048497,0l0,0zm-1.048498,3.864825l0,2.898623l3.145491,0l0,-2.898623l-3.145491,0l0,0zm1.048498,0.966208l0,0.966208l1.048497,0l0,-0.966208l-1.048497,0l0,0zm4.193985,0l0,0.966208l8.388061,0l0,-0.966208l-8.388061,0l0,0zm-5.242483,3.864826l0,2.898619l3.145491,0l0,-2.898619l-3.145491,0l0,0zm1.048498,0.966208l0,0.966206l1.048497,0l0,-0.966206l-1.048497,0l0,0zm4.193985,0l0,0.966206l8.388061,0l0,-0.966206l-8.388061,0l0,0z"/>
 </g>
</svg>