<svg width="40" height="40" xmlns="http://www.w3.org/2000/svg">

 <g>
  <title>background</title>
  <rect fill="none" id="canvas_background" height="42" width="42" y="-1" x="-1"/>
 </g>
 <g>
  <title>Layer 1</title>
  <g id="svg_15">
   <path opacity="0.2" id="svg_5" fill="#231F20" d="m35.837128,39.3405c-0.639999,0 -1.279999,-0.243999 -1.768005,-0.731998l-11.999998,-12c-0.976997,-0.977001 -0.976997,-2.559002 0,-3.535c0.976002,-0.977001 2.560001,-0.977001 3.535,0l12.000002,12c0.976997,0.976997 0.976997,2.558998 0,3.535c-0.487,0.487999 -1.126999,0.731998 -1.766998,0.731998z"/>
   <path id="svg_7" fill="#4F5D73" d="m35.837128,37.3405c-0.639999,0 -1.279999,-0.243999 -1.768005,-0.731998l-11.999998,-12c-0.976997,-0.977001 -0.976997,-2.559002 0,-3.535c0.976002,-0.977001 2.560001,-0.977001 3.535,0l12.000002,12c0.976997,0.976997 0.976997,2.558998 0,3.535c-0.487,0.487999 -1.126999,0.731998 -1.766998,0.731998z"/>
   <ellipse id="svg_9" transform="matrix(0.7071, -0.7071, 0.7071, 0.7071, -11.7579, 28.386)" ry="10.567" rx="10.567" fill="#77B3D4" cy="10.480206" cx="29.090728"/>
   <path opacity="0.2" id="svg_12" fill="#231F20" d="m16.223125,6.6595c2.704,0 5.408998,1.032 7.472002,3.094999c4.126999,4.127001 4.126999,10.816999 0,14.944002c-2.063004,2.063 -4.768002,3.094997 -7.472002,3.094997s-5.409,-1.031998 -7.472,-3.094997c-4.126999,-4.127003 -4.126999,-10.817001 0,-14.944002c2.063,-2.063 4.768,-3.094999 7.472,-3.094999zm0,-4c-3.890999,0 -7.549,1.514999 -10.299999,4.267c-5.68,5.68 -5.68,14.921 0,20.601c2.750999,2.750999 6.409,4.266998 10.299999,4.266998s7.549002,-1.514999 10.300001,-4.266998c5.679998,-5.68 5.679998,-14.921 0,-20.601c-2.750999,-2.752001 -6.409,-4.267 -10.300001,-4.267l0,0z"/>
   <path id="svg_14" fill="#FFFFFF" d="m16.223125,4.6595c2.704,0 5.408998,1.032 7.472002,3.094999c4.126999,4.127001 4.126999,10.817001 0,14.944002c-2.063004,2.063 -4.768002,3.094997 -7.472002,3.094997s-5.409,-1.031998 -7.472,-3.094997c-4.126999,-4.127001 -4.126999,-10.817001 0,-14.944002c2.063,-2.063 4.768,-3.094999 7.472,-3.094999m0,-4c-3.890999,0 -7.549,1.514999 -10.299999,4.267c-5.68,5.68 -5.68,14.921 0,20.601c2.750999,2.750999 6.409,4.266998 10.299999,4.266998s7.549002,-1.514999 10.300001,-4.266998c5.679998,-5.68 5.679998,-14.921 0,-20.601c-2.750999,-2.752001 -6.409,-4.267 -10.300001,-4.267l0,0z"/>
  </g>
 </g>
</svg>