<svg width="64" height="64" xmlns="http://www.w3.org/2000/svg">

 <g>
  <title>background</title>
  <rect fill="none" id="canvas_background" height="66" width="66" y="-1" x="-1"/>
 </g>
 <g>
  <title>Layer 1</title>
  <path opacity="0.2" id="svg_5" fill="#231F20" d="m43.904999,47.542999c-3.820999,-1.66 -5.216999,-4.242001 -5.642998,-6.468998c2.751999,-2.215 4.943001,-5.756001 6.147999,-9.573002c1.238998,-1.578999 1.959999,-3.226 1.959999,-4.619999c0,-0.955 -0.347,-1.646 -0.954998,-2.158001c-0.202999,-8.105999 -5.942001,-14.613 -13.039001,-14.714c-0.054001,0 -0.107998,-0.009 -0.162998,-0.009c-0.021999,0 -0.043003,0.004 -0.065002,0.004c-7.051998,0.039001 -12.782999,6.41 -13.124998,14.409c-0.884001,0.528 -1.394001,1.305 -1.394001,2.469c0,1.641001 0.992001,3.629999 2.663,5.448002c1.187,3.327 3.118,6.379997 5.5,8.438c-0.354,2.292 -1.698999,5.038998 -5.697001,6.775997c-2.158998,0.938 -6.105,1.781002 -7.808,2.649002c4.362,4.769001 12.624,7.769001 19.589,7.805l0.099001,0.002998c0.007999,-0.001999 0.017,-0.000999 0.025,-0.000999c7.014,0 15.325001,-3.009998 19.713001,-7.807999c-1.703003,-0.868 -5.650002,-1.711002 -7.808002,-2.649002z"/>
  <path id="svg_8" fill="#FFFFFF" d="m43.904999,45.542999c-3.820999,-1.66 -5.216999,-4.242001 -5.642998,-6.468998c2.751999,-2.215 4.943001,-5.756001 6.147999,-9.573002c1.238998,-1.578999 1.959999,-3.226 1.959999,-4.619999c0,-0.955 -0.347,-1.646 -0.954998,-2.158001c-0.202,-8.105 -5.941002,-14.613 -13.037003,-14.712999c-0.056,-0.001 -0.109997,-0.01 -0.164997,-0.01c-0.021999,0 -0.043003,0.004 -0.065002,0.004c-7.051998,0.039001 -12.782999,6.41 -13.124998,14.409c-0.884001,0.528 -1.394001,1.305 -1.394001,2.469c0,1.641001 0.992001,3.629999 2.663,5.448c1.187,3.327002 3.118,6.379999 5.5,8.438002c-0.354,2.292 -1.698999,5.038998 -5.697001,6.775997c-2.158998,0.938 -6.105,1.781002 -7.808,2.649002c4.362,4.769001 12.624,7.769001 19.589,7.805l0.099001,0.002998c0.007999,-0.001999 0.017,-0.000999 0.025,-0.000999c7.014,0 15.325001,-3.009998 19.713001,-7.807999c-1.703003,-0.868 -5.650002,-1.711002 -7.808002,-2.649002z"/>
 </g>
</svg>